<svg width="120" height="144" viewBox="0 0 120 144" fill="none" xmlns="http://www.w3.org/2000/svg">
<path d="M111.912 94.2903C100.535 97.7528 84.7067 115.106 78.2146 123.35C75.7414 120.877 72.4095 118.095 68.631 114.694C67.0853 113.303 65.9517 113.355 65.2304 113.767C64.0968 114.694 61.7679 116.858 61.5206 118.095C61.2733 119.331 62.0358 120.671 62.448 121.186C65.8487 125.205 73.3301 133.923 76.0506 136.644C78.7711 139.364 81.1 137.777 81.9244 136.644C102.452 111.912 110.469 98.1032 111.912 94.2903Z" fill="#028F65"/>
<path d="M59.6657 0C31.7187 16.5704 8.24397 22.1557 0 22.877V66.1578C0 100.782 38.3344 131.697 57.5017 142.827C58.9856 144.063 60.7992 143.342 61.5206 142.827L69.2493 138.189L61.5206 128.606L59.6657 130.152C18.1161 105.914 10.408 76.3597 11.7477 64.6121V32.4606C33.2644 27.2669 52.6583 17.3123 59.6657 12.9842C78.7093 24.8556 99.5459 30.9149 107.584 32.4606V61.5206C108.078 73.8865 103.05 86.2525 100.473 90.8897C108.388 82.2336 113.251 85.6342 114.694 88.4165C118.157 78.7711 119.022 69.5585 119.022 66.1578V22.877C98.7421 20.8985 71.0012 6.80127 59.6657 0Z" fill="#028F65"/>
<circle cx="59.3565" cy="50.7004" r="14.53" fill="#052849"/>
<path d="M86.2525 95.5269C77.5963 51.6278 30.9149 69.2493 33.0789 95.5269L53.4827 114.076C59.0474 98.3093 70.8981 102.843 74.5048 107.893L86.2525 95.5269Z" fill="#052849"/>
</svg>
